<svg width="160" height="112" viewBox="0 0 160 112" fill="none" xmlns="http://www.w3.org/2000/svg">
<path d="M93.6992 0.125C96.7656 0.125 99.3932 1.92116 100.652 4.50488L100.711 4.625L100.743 4.60645L158.703 104.993L158.661 105.019L158.72 105.126C159.027 105.687 159.207 106.308 159.251 106.944L159.262 107.218C159.26 108.335 158.836 109.41 158.076 110.229C157.316 111.049 156.275 111.551 155.161 111.637L155.046 111.646V111.724H3.29395V111.516L3.12988 111.571C2.90004 111.648 2.66368 111.697 2.41504 111.697C1.15111 111.697 0.125068 110.672 0.125 109.406L0.132812 109.221C0.169738 108.789 0.330411 108.375 0.59668 108.029L0.601562 108.022L0.606445 108.015L3.27734 103.389L3.29395 103.359V103.238H3.36523L3.40137 103.176L30.9912 55.3838L30.9932 55.3848L30.998 55.373C31.5909 54.0634 32.8598 53.1216 34.3613 53.0088L34.665 52.9971C35.4206 52.9982 36.1605 53.2125 36.7998 53.6152C37.4391 54.0181 37.9522 54.5932 38.2793 55.2744L38.3369 55.3955L38.3574 55.3828L47.7598 71.667L47.8682 71.8545L47.9766 71.667L86.6318 4.7168H86.6328L86.6377 4.70508C87.2488 3.34294 88.2406 2.1865 89.4932 1.37402C90.6675 0.612276 92.0246 0.183641 93.4199 0.130859L93.6992 0.125Z" fill="#5DAD00" stroke="white" stroke-width="0.25"/>
<line x1="12.2005" y1="105.162" x2="35.1618" y2="65.7995" stroke="white" stroke-width="10" stroke-linecap="round"/>
<line x1="35.7741" y1="66.0278" x2="46.9148" y2="86.6878" stroke="white" stroke-width="10" stroke-linecap="round"/>
<line x1="48.1858" y1="87.1656" x2="93.0856" y2="9.81457" stroke="white" stroke-width="10" stroke-linecap="round"/>
<line x1="93.8393" y1="9.82024" x2="147.825" y2="103.169" stroke="white" stroke-width="10" stroke-linecap="round"/>
<path d="M86.5555 63.6001C86.4757 61.3461 86.5401 58.9591 87.3339 57.0942C87.7525 56.1142 88.3559 55.3218 89.2295 54.7604C90.1073 54.1976 91.3673 53.8 93.2097 53.8C95.2748 53.8 96.9954 54.5504 98.2274 55.3316C98.8392 55.7208 99.3166 56.1086 99.6372 56.3956C99.7868 56.5304 99.9316 56.6705 100.071 56.8156L100.085 56.8296V56.831C100.207 56.9686 100.355 57.0807 100.521 57.161C100.686 57.2414 100.866 57.2883 101.049 57.2993C101.233 57.3102 101.417 57.2848 101.59 57.2247C101.764 57.1645 101.924 57.0707 102.062 56.9486C102.2 56.8266 102.312 56.6786 102.392 56.5132C102.472 56.3478 102.519 56.1682 102.53 55.9846C102.541 55.801 102.516 55.6171 102.456 55.4433C102.395 55.2696 102.302 55.1093 102.18 54.9718L101.151 55.8818C102.18 54.9718 102.177 54.969 102.177 54.969L102.171 54.962L102.157 54.948C102.102 54.8857 102.045 54.825 101.986 54.766C101.831 54.6097 101.671 54.4579 101.506 54.311C100.95 53.8165 100.356 53.3671 99.7282 52.967C98.2022 52.0024 95.9622 51 93.2097 51C90.9613 51 89.1455 51.4886 87.7175 52.4042C86.2853 53.324 85.3515 54.6022 84.7579 55.9966C83.7247 58.4229 83.6743 61.3139 83.7527 63.6001H76.3284C75.5542 63.6001 74.92 64.2301 75.0082 64.9973C75.8692 72.5294 83.6323 78.4976 93.2895 78.9694V90.2003H96.0896V78.9526C98.42 78.8136 100.717 78.3324 102.908 77.5246C102.922 77.6851 102.929 77.8517 102.929 78.0244C102.929 79.0912 102.056 80.368 100.267 81.4768C99.3498 82.0373 98.3615 82.4723 97.3286 82.7704V85.6628C98.8868 85.3025 100.376 84.6926 101.74 83.8568C103.802 82.5842 105.729 80.5724 105.729 78.0258C105.729 77.4518 105.675 76.8848 105.556 76.3346C110.27 73.809 113.508 69.7097 114.049 64.9987C114.137 64.2315 113.501 63.6015 112.729 63.6015L86.5555 63.6001Z" fill="white"/>
<path d="M102.93 99.9996C102.93 101.631 102.426 103.063 101.504 104.2H105.73V107H83.3301V104.2H93.2911V98.5996H96.0912V104.079C97.214 103.896 98.1016 103.514 98.74 103.011C99.615 102.325 100.13 101.337 100.13 99.9996C100.13 98.6626 99.615 97.6756 98.74 96.9881C97.83 96.2713 96.4132 95.7981 94.5302 95.7981C92.4063 95.7981 90.0501 95.6315 88.1867 94.8041C87.2291 94.3785 86.3457 93.7541 85.7045 92.8399C85.0577 91.9159 84.7301 90.7945 84.7301 89.4995C84.7301 88.2045 85.0577 87.0831 85.7045 86.1591C86.3457 85.2449 87.2305 84.6205 88.1867 84.1949C89.2507 83.7217 90.4785 83.4641 91.7301 83.3311V86.1493C90.8089 86.2655 89.9913 86.4573 89.3235 86.7541C88.7061 87.0285 88.2777 87.3673 87.9991 87.7649C87.7275 88.1527 87.5301 88.6945 87.5301 89.4995C87.5301 90.3045 87.7261 90.8463 87.9991 91.2341C88.2777 91.6317 88.7061 91.9705 89.3235 92.2449C90.6115 92.8175 92.4539 92.9995 94.5302 92.9995C96.8458 92.9995 98.9318 93.5777 100.47 94.7859C102.045 96.0235 102.93 97.8366 102.93 99.9996Z" fill="white"/>
</svg>
